<?xml version="1.0" encoding="utf-8"?>
<!-- Generator: Adobe Illustrator 18.1.1, SVG Export Plug-In . SVG Version: 6.00 Build 0)  -->
<!DOCTYPE svg PUBLIC "-//W3C//DTD SVG 1.1//EN" "http://www.w3.org/Graphics/SVG/1.1/DTD/svg11.dtd" [
	<!ENTITY st0 "enable-background:new    ;">
	<!ENTITY st1 "clip-path:url(#SVGID_2_);">
	<!ENTITY st2 "clip-path:url(#SVGID_4_);">
	<!ENTITY st3 "clip-path:url(#SVGID_6_);">
	<!ENTITY st4 "clip-path:url(#SVGID_8_);fill:#1A1919;">
	<!ENTITY st5 "clip-path:url(#SVGID_10_);">
	<!ENTITY st6 "clip-path:url(#SVGID_12_);">
	<!ENTITY st7 "clip-path:url(#SVGID_14_);fill:#005070;">
	<!ENTITY st8 "clip-path:url(#SVGID_16_);">
	<!ENTITY st9 "clip-path:url(#SVGID_18_);">
	<!ENTITY st10 "clip-path:url(#SVGID_20_);fill:#83C5DA;">
]>
<svg version="1.1" id="Ebene_1" xmlns="http://www.w3.org/2000/svg" xmlns:xlink="http://www.w3.org/1999/xlink" x="0px" y="0px"
	 width="117px" height="29px" viewBox="0 0 117 29" style="enable-background:new 0 0 117 29;" xml:space="preserve">
<g style="&st0;">
	<g>
		<defs>
			<rect id="SVGID_1_" width="117" height="29"/>
		</defs>
		<clipPath id="SVGID_2_">
			<use xlink:href="#SVGID_1_"  style="overflow:visible;"/>
		</clipPath>
		<g style="&st1;">
			<defs>
				<rect id="SVGID_3_" x="-240" y="-22" width="1440" height="1329"/>
			</defs>
			<clipPath id="SVGID_4_">
				<use xlink:href="#SVGID_3_"  style="overflow:visible;"/>
			</clipPath>
			<g style="&st2;">
				<defs>
					<path id="SVGID_5_" d="M108.3,24.3c0,2.1,1.8,3.7,4.2,3.7c0.9,0,1.6-0.4,2.2-1v0.7h2.1v-7.5c0,0,0,0,0,0c0-2.7-1.7-4.2-4.3-4.2
						c-1.2,0-2.4,0.3-3.5,0.6l0.4,1.7c0.9-0.3,2-0.5,3-0.5c1.5,0,2.2,0.9,2.2,2.5v0.6h-2.3C110,20.8,108.3,22,108.3,24.3z
						 M110.4,24.3c0-1,0.6-1.8,2.1-1.8h2.3v1.9c0,1-0.9,1.9-2.2,1.9C111.2,26.2,110.4,25.3,110.4,24.3z M100.8,27.7h2.3l3.8-11.5
						h-2.1l-2.2,6.8c-0.2,0.7-0.5,1.7-0.7,2.6c-0.2-0.9-0.4-1.9-0.7-2.6l-2.2-6.8H97L100.8,27.7z M86.1,22.9c0,3.4,2,5,4.6,5
						c2.6,0,4.6-1.6,4.6-5v-2c0-3.4-2-5-4.6-5c-2.6,0-4.6,1.6-4.6,5V22.9z M88.2,22.8v-1.8c0-2.4,1-3.4,2.6-3.4
						c1.6,0,2.6,0.9,2.6,3.4v1.8c0,2.4-1,3.4-2.6,3.4C89.2,26.2,88.2,25.3,88.2,22.8z M74.3,27.7h2.1v-7c0-2,1-3,2.4-3
						c1.4,0,2.3,1,2.3,3v7h2.1v-7.1c0-3-2-4.6-4.4-4.6c-2.4,0-4.4,1.6-4.4,4.6V27.7z M66.4,27.7h2.1v-7.5c0-1.5,0.9-2.5,2.3-2.5
						c0.4,0,1,0.1,1.2,0.2l0.4-1.7c-0.4-0.1-1.1-0.2-1.6-0.2c-2.4,0-4.4,1.7-4.4,4.3V27.7z M54.3,23.3c0,3,2,4.6,4.4,4.6
						c2.4,0,4.4-1.6,4.4-4.6v-7.1H61v7c0,2-1,3-2.4,3c-1.4,0-2.3-1-2.3-3v-7h-2.1V23.3z M42,22.9c0,3.4,2,5,4.6,5
						c2.6,0,4.6-1.6,4.6-5v-2c0-3.4-2-5-4.6-5c-2.6,0-4.6,1.6-4.6,5V22.9z M44,22.8v-1.8c0-2.4,1-3.4,2.6-3.4c1.6,0,2.6,0.9,2.6,3.4
						v1.8c0,2.4-1,3.4-2.6,3.4C45,26.2,44,25.3,44,22.8z M35.5,27.7h2.1v-10H40l0.4-1.5h-2.9v-1.7c0-1,0.7-1.6,1.6-1.6
						c0.4,0,0.9,0.1,1.3,0.2l0.4-1.7c-0.5-0.2-1.1-0.3-1.7-0.3c-1.8,0-3.6,1.2-3.6,3.4v1.7H34v1.5h1.5V27.7z"/>
				</defs>
				<clipPath id="SVGID_6_">
					<use xlink:href="#SVGID_5_"  style="overflow:visible;"/>
				</clipPath>
				<g style="&st3;">
					<defs>
						<rect id="SVGID_7_" width="117" height="29"/>
					</defs>
					<clipPath id="SVGID_8_">
						<use xlink:href="#SVGID_7_"  style="overflow:visible;"/>
					</clipPath>
					<rect x="29" y="6.1" style="&st4;" width="92.8" height="26.9"/>
				</g>
			</g>
		</g>
		<g style="&st1;">
			<defs>
				<rect id="SVGID_9_" x="-240" y="-22" width="1440" height="1329"/>
			</defs>
			<clipPath id="SVGID_10_">
				<use xlink:href="#SVGID_9_"  style="overflow:visible;"/>
			</clipPath>
			<g style="&st5;">
				<defs>
					<path id="SVGID_11_" d="M31,9.5V15l-15,7v-5.5L31,9.5z M36,0v6l-20,9V9L36,0z"/>
				</defs>
				<clipPath id="SVGID_12_">
					<use xlink:href="#SVGID_11_"  style="overflow:visible;"/>
				</clipPath>
				<g style="&st6;">
					<defs>
						<rect id="SVGID_13_" width="117" height="29"/>
					</defs>
					<clipPath id="SVGID_14_">
						<use xlink:href="#SVGID_13_"  style="overflow:visible;"/>
					</clipPath>
					<rect x="11" y="-5" style="&st7;" width="30" height="32"/>
				</g>
			</g>
		</g>
		<g style="&st1;">
			<defs>
				<rect id="SVGID_15_" x="-240" y="-22" width="1440" height="1329"/>
			</defs>
			<clipPath id="SVGID_16_">
				<use xlink:href="#SVGID_15_"  style="overflow:visible;"/>
			</clipPath>
			<g style="&st8;">
				<defs>
					<path id="SVGID_17_" d="M15,23.5l-10-5V24l10,5V23.5z M15,16.5l-15-8V14l15,8V16.5z"/>
				</defs>
				<clipPath id="SVGID_18_">
					<use xlink:href="#SVGID_17_"  style="overflow:visible;"/>
				</clipPath>
				<g style="&st9;">
					<defs>
						<rect id="SVGID_19_" width="117" height="29"/>
					</defs>
					<clipPath id="SVGID_20_">
						<use xlink:href="#SVGID_19_"  style="overflow:visible;"/>
					</clipPath>
					<rect x="-5" y="3.5" style="&st10;" width="25" height="30.5"/>
				</g>
			</g>
		</g>
	</g>
</g>
</svg>
